<svg xmlns="http://www.w3.org/2000/svg" width="20.883" height="27.388" viewBox="0 0 20.883 27.388">
  <defs>
    <style>
      .cls-1 {
        fill: #110b3f;
      }
    </style>
  </defs>
  <g id="bill" transform="translate(-6.155 7.861)">
    <path id="Path_12000" data-name="Path 12000" class="cls-1" d="M7.049,14.1h-.29a.626.626,0,0,1-.6-.429.613.613,0,0,1,.365-.756l4.6-1.768a.613.613,0,0,0,.345-.81A37.617,37.617,0,0,1,9.192.567.613.613,0,0,0,8.071.277L7.185,1.605,5.856.72a.613.613,0,0,0-.935.361l-.4,1.608L3.4,1.946a.613.613,0,0,0-.935.361l-.4,1.608L.953,3.172A.613.613,0,0,0,0,3.729a41.831,41.831,0,0,0,1.465,7.79,17.785,17.785,0,0,0,2.516,5.457A3.5,3.5,0,0,0,6.8,18.392h.214A2.145,2.145,0,1,0,7.049,14.1ZM3.108,7.587a.613.613,0,0,1,.342-.8L6.515,5.564A.613.613,0,0,1,6.97,6.7C3.651,8.03,3.847,7.972,3.677,7.972A.613.613,0,0,1,3.108,7.587Zm1.41,2.793a.613.613,0,1,1-.455-1.139L7.127,8.016a.613.613,0,0,1,.455,1.139Zm12.031.044c-.16,0,.157-.1-4.275,1.6-.005-.009-2.965,1.134-2.96,1.132a.307.307,0,0,0-.087.521A3.371,3.371,0,0,1,8.5,19.289a.173.173,0,0,0,.073.329A3.069,3.069,0,0,0,10,19.272s8.649-3.541,8.771-3.668a3.07,3.07,0,0,0-2.218-5.179Z" transform="translate(6.155 -0.091)"/>
    <path id="Path_12001" data-name="Path 12001" class="cls-1" d="M11.149,0a5.483,5.483,0,0,0-5.5,5.464c0,1.544,1.515,4.31,1.515,4.31l3.784,6.419,3.948-6.344s1.754-2.639,1.754-4.385A5.481,5.481,0,0,0,11.149,0Zm-.026,8.474a3.149,3.149,0,1,1,3.149-3.151A3.149,3.149,0,0,1,11.123,8.474Z" transform="translate(10.39 -7.861)"/>
  </g>
</svg>
